<?xml version="1.0" encoding="utf-8"?>
<!-- Generator: Adobe Illustrator 19.2.1, SVG Export Plug-In . SVG Version: 6.00 Build 0)  -->
<svg version="1.1" id="layer" xmlns="http://www.w3.org/2000/svg" xmlns:xlink="http://www.w3.org/1999/xlink" x="0px" y="0px"
	 viewBox="0 0 652 652" style="enable-background:new 0 0 652 652;" xml:space="preserve">
<style type="text/css">
	.st0{fill:#212492;}
</style>
<path class="st0" d="M615.3,374.2c-2.8,0.1-4.9,2.4-4.8,5.1c0.1,2.8,2.4,4.9,5.1,4.8c2.7-0.1,4.8-2.3,4.8-5
	C620.4,376.4,618.2,374.2,615.3,374.2C615.4,374.2,615.4,374.2,615.3,374.2z M615.3,383.3c-2.3,0-4.2-1.8-4.2-4.1
	c0-2.3,1.8-4.2,4.1-4.2s4.2,1.8,4.2,4.1c0,0,0,0,0,0c0.1,2.2-1.7,4.1-3.9,4.2C615.5,383.3,615.4,383.3,615.3,383.3z"/>
<path class="st0" d="M617.7,377.9c0-1.1-0.7-1.6-2.1-1.6h-2.3v5.7h0.9v-2.5h1l1.6,2.5h1l-1.7-2.5C617,379.5,617.7,378.9,617.7,377.9
	C617.7,378,617.7,378,617.7,377.9z M614.3,378.9V377h1.2c0.6,0,1.3,0.1,1.3,0.8c0,0.9-0.7,1-1.4,1L614.3,378.9z"/>
<polygon class="st0" points="179,254.8 153.6,269.2 159.2,278.7 179,267.5 199.7,279.2 205.3,269.7 179,254.8 "/>
<path class="st0" d="M597.8,354.8c-2.4,4.6-5.8,8.7-10,11.7c-9.4,6.2-20.5,9.2-31.7,8.4c-13.3,0.9-26.3-3.6-36.3-12.4
	c-6.8-7.6-10.5-17.5-10.3-27.7c0-27.4,22-38.4,45.7-38.4c10.3-0.3,20.5,2.3,29.5,7.3c4.6,3,8.4,7.1,10.9,12l15.2-3.3
	c-4.4-7.8-10.6-14.3-18.2-19.1c-11.7-6.2-24.7-9.3-38-9.1c-25.5,0-37.4,9-41.6,12.3c-12.4,8.9-19.4,23.4-18.5,38.6
	c0,29,20,51.8,60.5,51.8c14,0.3,27.8-3,40.1-9.8c7.6-4.7,13.7-11.4,17.6-19.3L597.8,354.8z"/>
<path class="st0" d="M411.4,284.8c-29.8,0-60.1,16.3-60.1,52.3c-0.5,15.7,7.1,30.6,20.2,39.3c12.2,7.6,26.5,11.4,40.9,10.7
	c32.1,0,60-16.7,60-49.9C472.3,305,446.2,284.9,411.4,284.8z M412.3,375.2c-14.4,0-28.9-3.4-38.2-14.1c-5.9-6.9-9-15.8-8.7-24.8
	c0-28.8,23.7-39.1,44.4-39.6C437,296,458,310.2,458,335.9C458,352.4,449.1,375.2,412.3,375.2z"/>
<path class="st0" d="M326.7,315.9c0.3-7.9-2.9-15.6-8.9-20.8c-8-6-18-8.8-27.9-7.9h-67.7v97.4h14.1v-38.9h48.1l33.7,38.9h18.5
	l-36.7-41.1C306.5,342.3,326.7,339.2,326.7,315.9z M236.1,334.2v-35.3h54.7c6.5,0.1,13.7,0.1,18.2,7.2c2,3.1,3,6.7,3,10.3
	c0.1,3.7-1.1,7.4-3.4,10.4c-5.6,7.3-15.5,7.4-23.3,7.4H236.1z"/>
<rect x="172.7" y="287.2" class="st0" width="14.5" height="97.4"/>
<path class="st0" d="M113.9,366.5c-9.4,6.2-20.5,9.2-31.7,8.4c-13.3,0.9-26.3-3.6-36.3-12.4c-6.8-7.6-10.5-17.5-10.3-27.7
	c0-27.4,22-38.4,45.7-38.4c10.3-0.3,20.5,2.3,29.5,7.3c4.6,3,8.4,7.1,10.8,12l15.2-3.3c-4.4-7.8-10.6-14.3-18.2-19.1
	c-11.7-6.2-24.7-9.3-37.9-9.1c-25.6,0-37.4,9-41.7,12.3c-12.4,8.9-19.4,23.4-18.5,38.6c0,29,20.1,51.8,60.6,51.8
	c14,0.3,27.8-3,40.1-9.8c7.6-4.7,13.7-11.4,17.6-19.3l-14.9-3C121.5,359.4,118.1,363.4,113.9,366.5z"/>
</svg>
