<?xml version="1.0" encoding="utf-8"?>
<!-- Generator: Adobe Illustrator 21.1.0, SVG Export Plug-In . SVG Version: 6.00 Build 0)  -->
<svg version="1.1" id="Слой_1" xmlns="http://www.w3.org/2000/svg" xmlns:xlink="http://www.w3.org/1999/xlink" x="0px" y="0px"
	 viewBox="0 0 700 500" style="enable-background:new 0 0 700 500;" xml:space="preserve">
<g>
	<path d="M298.3,110.6v162c0,54.5-17.4,83.3-50.3,83.3c-31,0-48.1-29.6-48.1-83.3v-162h-33.6v161.2c0,102.4,50.6,117.6,80.7,117.6
		c31.7,0,84.9-15.5,84.9-119.2V110.6H298.3z"/>
	<path d="M499.3,110.6v162c0,54.5-17.4,83.3-50.3,83.3c-31,0-48.1-29.6-48.1-83.3v-162h-33.6v161.2c0,102.4,50.6,117.6,80.7,117.6
		c31.7,0,84.9-15.5,84.9-119.2V110.6H499.3z"/>
	<path d="M652,355.8c-0.4,0-0.7,0-1.1,0c-31,0-48.1-29.6-48.1-83.3v-162h-33.6v161.2c0,102.4,50.6,117.6,80.7,117.6
		c0.7,0,1.4,0,2.1,0V355.8z"/>
	<path d="M48,355.8c0.4,0,0.7,0,1.1,0c31,0,48.1-29.6,48.1-83.3v-162h33.6v161.2c0,102.4-50.6,117.6-80.7,117.6c-0.7,0-1.4,0-2.1,0
		V355.8z"/>
</g>
</svg>
